<svg width="640" height="640" xmlns="http://www.w3.org/2000/svg" xmlns:xlink="http://www.w3.org/1999/xlink" preserveAspectRatio="xMidYMid meet">
 <defs>
  <path id="c1jHkpbPS" d="m592.5,310.44c0,140.74 -114.26,255 -255,255c-140.74,0 -255,-114.26 -255,-255c0,-140.73 114.26,-255 255,-255c140.74,0 255,114.27 255,255z"/>
  <path id="e2Eum3PCDl"/>
  <path id="a1DmCsLhg" d="m446.9,340.63l1.82,0.18l1.79,0.26l1.77,0.32l1.75,0.4l1.72,0.46l1.69,0.52l1.66,0.59l1.63,0.66l1.6,0.71l1.56,0.77l1.53,0.83l1.5,0.89l1.45,0.94l1.42,1l1.38,1.05l1.33,1.1l1.29,1.15l1.24,1.2l1.2,1.24l1.15,1.29l1.1,1.34l1.05,1.37l1,1.42l0.94,1.45l0.89,1.5l0.83,1.53l0.77,1.56l0.72,1.6l0.65,1.63l0.59,1.67l0.53,1.69l0.46,1.71l0.39,1.75l0.33,1.77l0.25,1.79l0.19,1.82l0.11,1.83l0.03,1.86l0,45.49l-0.03,1.85l-0.11,1.84l-0.19,1.81l-0.25,1.79l-0.33,1.77l-0.39,1.75l-0.46,1.72l-0.53,1.69l-0.59,1.66l-0.65,1.63l-0.72,1.6l-0.77,1.57l-0.83,1.53l-0.89,1.49l-0.94,1.46l-1,1.41l-1.05,1.38l-1.1,1.33l-1.15,1.29l-1.2,1.25l-1.24,1.19l-1.29,1.15l-1.33,1.1l-1.38,1.05l-1.42,1l-1.45,0.94l-1.5,0.89l-1.53,0.83l-1.56,0.78l-1.6,0.71l-1.63,0.65l-1.66,0.59l-1.69,0.53l-1.72,0.46l-1.75,0.39l-1.77,0.33l-1.79,0.25l-1.82,0.19l-1.83,0.11l-1.86,0.04l-43.92,0l-1.86,-0.04l-1.83,-0.11l-1.82,-0.19l-1.79,-0.25l-1.77,-0.33l-1.75,-0.39l-1.72,-0.46l-1.69,-0.53l-1.66,-0.59l-1.63,-0.65l-1.6,-0.71l-1.56,-0.78l-1.53,-0.83l-1.5,-0.89l-1.45,-0.94l-1.42,-1l-1.38,-1.05l-1.33,-1.1l-1.29,-1.15l-1.24,-1.19l-1.2,-1.25l-1.15,-1.29l-1.1,-1.33l-1.05,-1.38l-1,-1.41l-0.94,-1.46l-0.89,-1.49l-0.83,-1.53l-0.77,-1.57l-0.72,-1.6l-0.65,-1.63l-0.59,-1.66l-0.53,-1.69l-0.46,-1.72l-0.39,-1.75l-0.33,-1.77l-0.25,-1.79l-0.19,-1.81l-0.11,-1.84l-0.03,-1.85l0,-45.49l0.03,-1.86l0.11,-1.83l0.19,-1.82l0.25,-1.79l0.33,-1.77l0.39,-1.75l0.46,-1.71l0.53,-1.69l0.59,-1.67l0.65,-1.63l0.72,-1.6l0.77,-1.56l0.83,-1.53l0.89,-1.5l0.94,-1.45l1,-1.42l1.05,-1.37l1.1,-1.34l1.15,-1.29l1.2,-1.24l1.24,-1.2l1.29,-1.15l1.33,-1.1l1.38,-1.05l1.42,-1l1.45,-0.94l1.5,-0.89l1.53,-0.83l1.56,-0.77l1.6,-0.71l1.63,-0.66l1.66,-0.59l1.69,-0.52l1.72,-0.46l1.75,-0.4l1.77,-0.32l1.79,-0.26l1.82,-0.18l1.83,-0.11l1.86,-0.04l43.92,0l1.86,0.04l1.83,0.11zm-132.45,-216.99l1.75,0.18l1.73,0.24l1.71,0.32l1.68,0.38l1.66,0.44l1.63,0.51l1.6,0.57l1.57,0.62l1.55,0.69l1.5,0.75l1.48,0.8l1.44,0.86l1.4,0.91l1.37,0.96l1.33,1.01l1.28,1.06l1.25,1.11l1.2,1.15l1.15,1.2l1.11,1.25l1.06,1.28l1.01,1.33l0.96,1.37l0.91,1.4l0.86,1.44l0.8,1.48l0.75,1.51l0.69,1.54l0.62,1.57l0.57,1.6l0.51,1.63l0.44,1.66l0.38,1.68l0.32,1.71l0.24,1.73l0.18,1.75l0.11,1.77l0.04,1.79l0,118.07l-0.04,1.79l-0.11,1.77l-0.18,1.75l-0.24,1.73l-0.32,1.7l-0.38,1.69l-0.44,1.65l-0.51,1.63l-0.57,1.61l-0.62,1.57l-0.69,1.54l-0.75,1.51l-0.8,1.48l-0.86,1.44l-0.91,1.4l-0.96,1.37l-1.01,1.32l-1.06,1.29l-1.11,1.24l-1.15,1.2l-1.2,1.16l-1.25,1.11l-1.28,1.06l-1.33,1.01l-1.37,0.96l-1.4,0.91l-1.44,0.86l-1.48,0.8l-1.5,0.74l-1.55,0.69l-1.57,0.63l-1.6,0.57l-1.63,0.51l-1.66,0.44l-1.68,0.38l-1.71,0.31l-1.73,0.25l-1.75,0.18l-1.77,0.11l-1.79,0.03l-115.71,0l-1.79,-0.03l-1.77,-0.11l-1.75,-0.18l-1.73,-0.25l-1.71,-0.31l-1.68,-0.38l-1.66,-0.44l-1.63,-0.51l-1.6,-0.57l-1.57,-0.63l-1.54,-0.69l-1.51,-0.74l-1.48,-0.8l-1.44,-0.86l-1.4,-0.91l-1.37,-0.96l-1.33,-1.01l-1.28,-1.06l-1.24,-1.11l-1.2,-1.16l-1.16,-1.2l-1.11,-1.24l-1.06,-1.29l-1.01,-1.32l-0.96,-1.37l-0.91,-1.4l-0.86,-1.44l-0.8,-1.48l-0.75,-1.51l-0.68,-1.54l-0.63,-1.57l-0.57,-1.61l-0.51,-1.63l-0.44,-1.65l-0.38,-1.69l-0.32,-1.7l-0.24,-1.73l-0.18,-1.75l-0.11,-1.77l-0.03,-1.79l0,-118.07l0.03,-1.79l0.11,-1.77l0.18,-1.75l0.24,-1.73l0.32,-1.71l0.38,-1.68l0.44,-1.66l0.51,-1.63l0.57,-1.6l0.63,-1.57l0.68,-1.54l0.75,-1.51l0.8,-1.48l0.86,-1.44l0.91,-1.4l0.96,-1.37l1.01,-1.33l1.06,-1.28l1.11,-1.25l1.16,-1.2l1.2,-1.15l1.24,-1.11l1.28,-1.06l1.33,-1.01l1.37,-0.96l1.4,-0.91l1.44,-0.86l1.48,-0.8l1.51,-0.75l1.54,-0.69l1.57,-0.62l1.6,-0.57l1.63,-0.51l1.66,-0.44l1.68,-0.38l1.71,-0.32l1.73,-0.24l1.75,-0.18l1.77,-0.11l1.79,-0.04l115.71,0l1.79,0.04l1.77,0.11z"/>
  <path id="mjnTL1z55" d="m184,239.82l9.45,-4.94l9.57,-4.61l9.68,-4.28l9.78,-3.94l9.87,-3.62l9.96,-3.28l10.04,-2.95l10.11,-2.62l10.16,-2.29l10.22,-1.96l10.27,-1.63l10.3,-1.29l10.32,-0.97l10.35,-0.64l10.35,-0.3l10.36,0.02l10.35,0.36l10.34,0.68l10.32,1.01l10.28,1.35l10.24,1.67l10.2,2l10.14,2.33l10.08,2.66l10,2.99l9.93,3.31l9.83,3.65l9.74,3.97l9.63,4.3l9.51,4.63l9.4,4.95l9.26,5.29l9.12,5.61l8.98,5.94l8.82,6.26l8.66,6.59l51.21,40.37l-52.55,42.17l-8.56,6.64l-8.74,6.31l-8.89,5.98l-9.05,5.66l-9.19,5.32l-9.32,4.99l-9.44,4.66l-9.57,4.33l-9.67,4l-9.77,3.67l-9.86,3.34l-9.95,3.01l-10.01,2.68l-10.09,2.34l-10.14,2.02l-10.19,1.68l-10.23,1.35l-10.26,1.02l-10.29,0.69l-10.3,0.36l-10.3,0.02l-10.31,-0.31l-10.29,-0.64l-10.27,-0.98l-10.25,-1.31l-10.21,-1.64l-10.16,-1.97l-10.11,-2.31l-10.05,-2.64l-9.98,-2.98l-9.9,-3.31l-9.81,-3.64l-9.71,-3.98l-9.61,-4.31l-9.5,-4.65l-9.38,-4.98l-9.25,-5.31l-9.1,-5.65l-8.96,-5.99l-8.81,-6.32l-66.3,-49.32l65.06,-47.53l8.89,-6.27l9.04,-5.94l9.19,-5.61l0,0l9.32,-5.27z"/>
  <path id="aeDuc64XL" d="m444.77,310.44c0,60.72 -48.44,110 -108.1,110c-59.67,0 -108.11,-49.28 -108.11,-110c0,-60.71 48.44,-110 108.11,-110c59.66,0 108.1,49.29 108.1,110z"/>
  <path id="a2EEgmeqYF" d="m321.8,232.21c10.65,0 19.28,8.64 19.28,19.29c0,14.14 0,37.28 0,51.43c0,10.65 -8.63,19.28 -19.28,19.28c-14.15,0 -37.29,0 -51.43,0c-10.65,0 -19.29,-8.63 -19.29,-19.28c0,-14.15 0,-37.29 0,-51.43c0,-10.65 8.64,-19.29 19.29,-19.29c14.14,0 37.28,0 51.43,0z"/>
  <path id="aKPUwxISm" d="m380.61,327.54c11.04,0 20,8.95 20,20c0,7.9 0,11.62 0,19.52c0,11.05 -8.96,20 -20,20c-7.91,0 -11.62,0 -19.53,0c-11.04,0 -20,-8.95 -20,-20c0,-7.9 0,-11.62 0,-19.52c0,-11.05 8.96,-20 20,-20c7.91,0 11.62,0 19.53,0z"/>
  <path id="bSPZGClFc" d="m371.08,310.44c0,16.56 -13.44,30 -30,30c-16.55,0 -30,-13.44 -30,-30c0,-16.55 13.45,-30 30,-30c16.56,0 30,13.45 30,30z"/>
 </defs>
 <g>
  <title>background</title>
  <rect fill="none" id="canvas_background" height="602" width="802" y="-1" x="-1"/>
 </g>
 <g>
  <title>Layer 1</title>
  <g id="svg_1">
   <g id="svg_2">
    <g id="svg_3">
     <use id="svg_4" fill="#42b8ff" xlink:href="#c1jHkpbPS"/>
    </g>
    <g id="svg_5">
     <g id="svg_6">
      <use id="svg_7" stroke="#000000" fill-opacity="0" xlink:href="#e2Eum3PCDl"/>
     </g>
    </g>
    <g id="svg_8">
     <use id="svg_9" fill="#42ff5d" xlink:href="#a1DmCsLhg"/>
    </g>
    <g id="svg_10">
     <use stroke-width="0" id="svg_11" fill="#ffffff" xlink:href="#mjnTL1z55"/>
     <g id="svg_12">
      <use id="svg_13" stroke-width="0" stroke="#000000" fill-opacity="0" xlink:href="#mjnTL1z55"/>
     </g>
    </g>
    <g id="svg_14">
     <use id="svg_15" fill="#ff8942" xlink:href="#aeDuc64XL"/>
    </g>
    <g id="svg_16">
     <use id="svg_17" fill="#db783b" xlink:href="#a2EEgmeqYF"/>
    </g>
    <g id="svg_18">
     <use id="svg_19" fill="#db783b" xlink:href="#aKPUwxISm"/>
    </g>
    <g id="svg_20">
     <use id="svg_21" fill="#db783b" xlink:href="#bSPZGClFc"/>
     <g id="svg_22">
      <use id="svg_23" stroke-width="12" stroke="#ff8942" fill-opacity="0" xlink:href="#bSPZGClFc"/>
     </g>
    </g>
   </g>
  </g>
 </g>
</svg>